<mxfile host="Electron" modified="2024-04-04T10:01:43.809Z" agent="Mozilla/5.0 (X11; Linux x86_64) AppleWebKit/537.36 (KHTML, like Gecko) draw.io/24.1.0 Chrome/120.0.6099.109 Electron/28.1.0 Safari/537.36" etag="39tABZbqIbx8b8aYoF_c" version="24.1.0" type="device">
  <diagram name="Page-1" id="-cMVqA2Gkwa5aGeDibPs">
    <mxGraphModel dx="1513" dy="1737" grid="1" gridSize="10" guides="1" tooltips="1" connect="1" arrows="1" fold="1" page="0" pageScale="1" pageWidth="413" pageHeight="583" math="1" shadow="0">
      <root>
        <mxCell id="0" />
        <mxCell id="1" parent="0" />
        <mxCell id="GCO7xrDp6TmdYOZJOnFd-1" value="&lt;font style=&quot;font-size: 9px;&quot;&gt;$$EfePu$$&lt;/font&gt;" style="triangle;whiteSpace=wrap;html=1;align=left;" parent="1" vertex="1">
          <mxGeometry x="220" y="120" width="60" height="80" as="geometry" />
        </mxCell>
        <mxCell id="GCO7xrDp6TmdYOZJOnFd-127" style="edgeStyle=orthogonalEdgeStyle;rounded=0;orthogonalLoop=1;jettySize=auto;html=1;exitX=0.5;exitY=1;exitDx=0;exitDy=0;" parent="1" source="GCO7xrDp6TmdYOZJOnFd-99" edge="1">
          <mxGeometry relative="1" as="geometry">
            <mxPoint x="600.2" y="190.20000000000005" as="targetPoint" />
          </mxGeometry>
        </mxCell>
        <mxCell id="GCO7xrDp6TmdYOZJOnFd-99" value="$$\frac{1}{tE*s}$$" style="rounded=0;whiteSpace=wrap;html=1;" parent="1" vertex="1">
          <mxGeometry x="560" y="120" width="80" height="80" as="geometry" />
        </mxCell>
        <mxCell id="GCO7xrDp6TmdYOZJOnFd-110" value="" style="endArrow=none;html=1;exitX=0.5;exitY=0;exitDx=0;exitDy=0;" parent="1" source="GCO7xrDp6TmdYOZJOnFd-99" edge="1">
          <mxGeometry width="50" height="50" relative="1" as="geometry">
            <mxPoint x="600" y="130" as="sourcePoint" />
            <mxPoint x="620" y="110" as="targetPoint" />
          </mxGeometry>
        </mxCell>
        <mxCell id="GCO7xrDp6TmdYOZJOnFd-111" value="" style="endArrow=none;html=1;" parent="1" edge="1">
          <mxGeometry width="50" height="50" relative="1" as="geometry">
            <mxPoint x="620" y="110" as="sourcePoint" />
            <mxPoint x="640" y="110" as="targetPoint" />
          </mxGeometry>
        </mxCell>
        <mxCell id="GCO7xrDp6TmdYOZJOnFd-113" value="" style="endArrow=none;html=1;" parent="1" edge="1">
          <mxGeometry width="50" height="50" relative="1" as="geometry">
            <mxPoint x="561" y="210" as="sourcePoint" />
            <mxPoint x="541" y="210" as="targetPoint" />
          </mxGeometry>
        </mxCell>
        <mxCell id="GCO7xrDp6TmdYOZJOnFd-114" value="&lt;font style=&quot;font-size: 9px;&quot;&gt;$$VeMinPu$$&lt;/font&gt;" style="text;html=1;strokeColor=none;fillColor=none;align=center;verticalAlign=middle;whiteSpace=wrap;rounded=0;fontSize=15;" parent="1" vertex="1">
          <mxGeometry x="520" y="206" width="60" height="30" as="geometry" />
        </mxCell>
        <mxCell id="GCO7xrDp6TmdYOZJOnFd-115" value="" style="endArrow=none;html=1;exitX=0.5;exitY=0;exitDx=0;exitDy=0;entryX=0.25;entryY=1;entryDx=0;entryDy=0;" parent="1" target="GCO7xrDp6TmdYOZJOnFd-99" edge="1">
          <mxGeometry width="50" height="50" relative="1" as="geometry">
            <mxPoint x="561" y="210" as="sourcePoint" />
            <mxPoint x="581" y="190" as="targetPoint" />
          </mxGeometry>
        </mxCell>
        <mxCell id="pcb0Rrb9AqgbB0oOaPCg-23" value="&lt;font style=&quot;font-size: 10px;&quot;&gt;$$EfdPu$$&lt;/font&gt;" style="triangle;whiteSpace=wrap;html=1;align=left;" parent="1" vertex="1">
          <mxGeometry x="1520" y="-200" width="60" height="80" as="geometry" />
        </mxCell>
        <mxCell id="eN8Zq5XajQ-hrPbZrUXH-25" value="" style="ellipse;whiteSpace=wrap;html=1;aspect=fixed;" parent="1" vertex="1">
          <mxGeometry x="340" y="140" width="40" height="40" as="geometry" />
        </mxCell>
        <mxCell id="eN8Zq5XajQ-hrPbZrUXH-26" value="+" style="text;html=1;strokeColor=none;fillColor=none;align=center;verticalAlign=middle;whiteSpace=wrap;rounded=0;fontSize=20;" parent="1" vertex="1">
          <mxGeometry x="300" y="160" width="60" height="31" as="geometry" />
        </mxCell>
        <mxCell id="eN8Zq5XajQ-hrPbZrUXH-27" value="-" style="text;html=1;strokeColor=none;fillColor=none;align=center;verticalAlign=middle;whiteSpace=wrap;rounded=0;fontSize=20;" parent="1" vertex="1">
          <mxGeometry x="353" y="110" width="60" height="30" as="geometry" />
        </mxCell>
        <mxCell id="yuVk0EhnXVRBRO2mFo1Z-7" value="&lt;font style=&quot;font-size: 9px;&quot;&gt;$$IrPu$$&lt;/font&gt;" style="triangle;whiteSpace=wrap;html=1;align=left;" parent="1" vertex="1">
          <mxGeometry x="220" y="-480" width="60" height="80" as="geometry" />
        </mxCell>
        <mxCell id="BITaTjCggA9tgRe2AFIF-1" value="&lt;font style=&quot;font-size: 10px;&quot;&gt;$$VfePu$$&lt;/font&gt;" style="triangle;whiteSpace=wrap;html=1;align=left;" vertex="1" parent="1">
          <mxGeometry x="400" y="-40" width="60" height="80" as="geometry" />
        </mxCell>
        <mxCell id="BITaTjCggA9tgRe2AFIF-3" value="" style="endArrow=classic;html=1;rounded=0;exitX=1;exitY=0.5;exitDx=0;exitDy=0;entryX=0;entryY=0.5;entryDx=0;entryDy=0;" edge="1" parent="1" source="GCO7xrDp6TmdYOZJOnFd-1" target="eN8Zq5XajQ-hrPbZrUXH-25">
          <mxGeometry width="50" height="50" relative="1" as="geometry">
            <mxPoint x="180" y="170" as="sourcePoint" />
            <mxPoint x="230" y="120" as="targetPoint" />
          </mxGeometry>
        </mxCell>
        <mxCell id="BITaTjCggA9tgRe2AFIF-4" value="&lt;table&gt;&lt;tbody&gt;&lt;tr&gt;&lt;td&gt;$$+$$&lt;/td&gt;&lt;/tr&gt;&lt;/tbody&gt;&lt;/table&gt;" style="rounded=0;whiteSpace=wrap;html=1;" vertex="1" parent="1">
          <mxGeometry x="400" y="-160" width="80" height="80" as="geometry" />
        </mxCell>
        <mxCell id="BITaTjCggA9tgRe2AFIF-5" value="&lt;table&gt;&lt;tbody&gt;&lt;tr&gt;&lt;td&gt;$$Kd$$&lt;/td&gt;&lt;/tr&gt;&lt;/tbody&gt;&lt;/table&gt;" style="rounded=0;whiteSpace=wrap;html=1;" vertex="1" parent="1">
          <mxGeometry x="400" y="-280" width="80" height="80" as="geometry" />
        </mxCell>
        <mxCell id="BITaTjCggA9tgRe2AFIF-6" value="&lt;table&gt;&lt;tbody&gt;&lt;tr&gt;&lt;td&gt;$$VfeMaxPu$$&lt;/td&gt;&lt;/tr&gt;&lt;/tbody&gt;&lt;/table&gt;" style="rounded=0;whiteSpace=wrap;html=1;" vertex="1" parent="1">
          <mxGeometry x="400" y="-400" width="80" height="80" as="geometry" />
        </mxCell>
        <mxCell id="BITaTjCggA9tgRe2AFIF-7" value="&lt;table&gt;&lt;tbody&gt;&lt;tr&gt;&lt;td&gt;$$1$$&lt;/td&gt;&lt;/tr&gt;&lt;tr&gt;&lt;td&gt;$$-1$$&lt;/td&gt;&lt;/tr&gt;&lt;/tbody&gt;&lt;/table&gt;" style="rounded=0;whiteSpace=wrap;html=1;" vertex="1" parent="1">
          <mxGeometry x="601" y="-340" width="80" height="80" as="geometry" />
        </mxCell>
        <mxCell id="BITaTjCggA9tgRe2AFIF-8" value="&lt;table&gt;&lt;tbody&gt;&lt;tr&gt;&lt;td&gt;$$:$$&lt;/td&gt;&lt;/tr&gt;&lt;/tbody&gt;&lt;/table&gt;" style="rounded=0;whiteSpace=wrap;html=1;" vertex="1" parent="1">
          <mxGeometry x="761" y="-280" width="80" height="80" as="geometry" />
        </mxCell>
        <mxCell id="BITaTjCggA9tgRe2AFIF-9" value="&lt;table&gt;&lt;tbody&gt;&lt;tr&gt;&lt;td&gt;$$*$$&lt;/td&gt;&lt;/tr&gt;&lt;/tbody&gt;&lt;/table&gt;" style="rounded=0;whiteSpace=wrap;html=1;" vertex="1" parent="1">
          <mxGeometry x="601" y="-80" width="80" height="80" as="geometry" />
        </mxCell>
        <mxCell id="BITaTjCggA9tgRe2AFIF-10" value="" style="endArrow=classic;html=1;rounded=0;exitX=1;exitY=0.5;exitDx=0;exitDy=0;entryX=0;entryY=0.75;entryDx=0;entryDy=0;" edge="1" parent="1" source="BITaTjCggA9tgRe2AFIF-5" target="BITaTjCggA9tgRe2AFIF-7">
          <mxGeometry width="50" height="50" relative="1" as="geometry">
            <mxPoint x="620" y="-210" as="sourcePoint" />
            <mxPoint x="670" y="-260" as="targetPoint" />
            <Array as="points">
              <mxPoint x="520" y="-240" />
              <mxPoint x="520" y="-280" />
            </Array>
          </mxGeometry>
        </mxCell>
        <mxCell id="BITaTjCggA9tgRe2AFIF-11" value="" style="endArrow=classic;html=1;rounded=0;exitX=1;exitY=0.5;exitDx=0;exitDy=0;entryX=0;entryY=0.25;entryDx=0;entryDy=0;" edge="1" parent="1" source="BITaTjCggA9tgRe2AFIF-6" target="BITaTjCggA9tgRe2AFIF-7">
          <mxGeometry width="50" height="50" relative="1" as="geometry">
            <mxPoint x="620" y="-210" as="sourcePoint" />
            <mxPoint x="670" y="-260" as="targetPoint" />
            <Array as="points">
              <mxPoint x="520" y="-360" />
              <mxPoint x="520" y="-320" />
            </Array>
          </mxGeometry>
        </mxCell>
        <mxCell id="BITaTjCggA9tgRe2AFIF-12" value="" style="endArrow=classic;html=1;rounded=0;exitX=1;exitY=0.5;exitDx=0;exitDy=0;entryX=1;entryY=0.25;entryDx=0;entryDy=0;" edge="1" parent="1" source="BITaTjCggA9tgRe2AFIF-5" target="BITaTjCggA9tgRe2AFIF-4">
          <mxGeometry width="50" height="50" relative="1" as="geometry">
            <mxPoint x="620" y="-210" as="sourcePoint" />
            <mxPoint x="670" y="-260" as="targetPoint" />
            <Array as="points">
              <mxPoint x="520" y="-240" />
              <mxPoint x="520" y="-140" />
            </Array>
          </mxGeometry>
        </mxCell>
        <mxCell id="BITaTjCggA9tgRe2AFIF-13" value="" style="endArrow=classic;html=1;rounded=0;exitX=0;exitY=0.5;exitDx=0;exitDy=0;entryX=1;entryY=0.75;entryDx=0;entryDy=0;" edge="1" parent="1" source="BITaTjCggA9tgRe2AFIF-9" target="BITaTjCggA9tgRe2AFIF-4">
          <mxGeometry width="50" height="50" relative="1" as="geometry">
            <mxPoint x="620" y="-210" as="sourcePoint" />
            <mxPoint x="670" y="-260" as="targetPoint" />
            <Array as="points">
              <mxPoint x="560" y="-40" />
              <mxPoint x="560" y="-100" />
            </Array>
          </mxGeometry>
        </mxCell>
        <mxCell id="BITaTjCggA9tgRe2AFIF-14" value="" style="endArrow=classic;html=1;rounded=0;exitX=0;exitY=0.5;exitDx=0;exitDy=0;entryX=0;entryY=0.75;entryDx=0;entryDy=0;" edge="1" parent="1" source="BITaTjCggA9tgRe2AFIF-9" target="BITaTjCggA9tgRe2AFIF-8">
          <mxGeometry width="50" height="50" relative="1" as="geometry">
            <mxPoint x="620" y="-210" as="sourcePoint" />
            <mxPoint x="670" y="-260" as="targetPoint" />
            <Array as="points">
              <mxPoint x="560" y="-40" />
              <mxPoint x="560" y="-220" />
            </Array>
          </mxGeometry>
        </mxCell>
        <mxCell id="BITaTjCggA9tgRe2AFIF-15" value="" style="endArrow=classic;html=1;rounded=0;exitX=1;exitY=0.5;exitDx=0;exitDy=0;entryX=0;entryY=0.25;entryDx=0;entryDy=0;" edge="1" parent="1" source="BITaTjCggA9tgRe2AFIF-7" target="BITaTjCggA9tgRe2AFIF-8">
          <mxGeometry width="50" height="50" relative="1" as="geometry">
            <mxPoint x="661" y="-210" as="sourcePoint" />
            <mxPoint x="711" y="-260" as="targetPoint" />
            <Array as="points">
              <mxPoint x="721" y="-300" />
              <mxPoint x="721" y="-260" />
            </Array>
          </mxGeometry>
        </mxCell>
        <mxCell id="BITaTjCggA9tgRe2AFIF-16" value="&lt;table&gt;&lt;tbody&gt;&lt;tr&gt;&lt;td&gt;$$Kc$$&lt;/td&gt;&lt;/tr&gt;&lt;/tbody&gt;&lt;/table&gt;" style="rounded=0;whiteSpace=wrap;html=1;" vertex="1" parent="1">
          <mxGeometry x="761" y="-480" width="80" height="80" as="geometry" />
        </mxCell>
        <mxCell id="BITaTjCggA9tgRe2AFIF-21" value="" style="edgeStyle=orthogonalEdgeStyle;rounded=0;orthogonalLoop=1;jettySize=auto;html=1;" edge="1" parent="1" source="BITaTjCggA9tgRe2AFIF-17" target="BITaTjCggA9tgRe2AFIF-18">
          <mxGeometry relative="1" as="geometry" />
        </mxCell>
        <mxCell id="BITaTjCggA9tgRe2AFIF-17" value="&lt;table&gt;&lt;tbody&gt;&lt;tr&gt;&lt;td&gt;$$:$$&lt;/td&gt;&lt;/tr&gt;&lt;/tbody&gt;&lt;/table&gt;" style="rounded=0;whiteSpace=wrap;html=1;" vertex="1" parent="1">
          <mxGeometry x="1120" y="-320" width="80" height="80" as="geometry" />
        </mxCell>
        <mxCell id="BITaTjCggA9tgRe2AFIF-18" value="&lt;table&gt;&lt;tbody&gt;&lt;tr&gt;&lt;td&gt;$$FRectifier$$&lt;/td&gt;&lt;/tr&gt;&lt;/tbody&gt;&lt;/table&gt;" style="rounded=0;whiteSpace=wrap;html=1;" vertex="1" parent="1">
          <mxGeometry x="1240" y="-320" width="80" height="80" as="geometry" />
        </mxCell>
        <mxCell id="BITaTjCggA9tgRe2AFIF-23" value="" style="edgeStyle=orthogonalEdgeStyle;rounded=0;orthogonalLoop=1;jettySize=auto;html=1;" edge="1" parent="1" source="BITaTjCggA9tgRe2AFIF-19" target="pcb0Rrb9AqgbB0oOaPCg-23">
          <mxGeometry relative="1" as="geometry" />
        </mxCell>
        <mxCell id="BITaTjCggA9tgRe2AFIF-19" value="&lt;table&gt;&lt;tbody&gt;&lt;tr&gt;&lt;td&gt;$$*$$&lt;/td&gt;&lt;/tr&gt;&lt;/tbody&gt;&lt;/table&gt;" style="rounded=0;whiteSpace=wrap;html=1;" vertex="1" parent="1">
          <mxGeometry x="1400" y="-200" width="80" height="80" as="geometry" />
        </mxCell>
        <mxCell id="BITaTjCggA9tgRe2AFIF-20" value="" style="endArrow=classic;html=1;rounded=0;exitX=1;exitY=0.5;exitDx=0;exitDy=0;entryX=0;entryY=0.25;entryDx=0;entryDy=0;" edge="1" parent="1" source="BITaTjCggA9tgRe2AFIF-16" target="BITaTjCggA9tgRe2AFIF-17">
          <mxGeometry width="50" height="50" relative="1" as="geometry">
            <mxPoint x="990" y="-320" as="sourcePoint" />
            <mxPoint x="1040" y="-370" as="targetPoint" />
            <Array as="points">
              <mxPoint x="1080" y="-440" />
              <mxPoint x="1080" y="-300" />
            </Array>
          </mxGeometry>
        </mxCell>
        <mxCell id="BITaTjCggA9tgRe2AFIF-22" value="" style="endArrow=classic;html=1;rounded=0;exitX=1;exitY=0.5;exitDx=0;exitDy=0;entryX=0;entryY=0.25;entryDx=0;entryDy=0;" edge="1" parent="1" source="BITaTjCggA9tgRe2AFIF-18" target="BITaTjCggA9tgRe2AFIF-19">
          <mxGeometry width="50" height="50" relative="1" as="geometry">
            <mxPoint x="1230" y="-240" as="sourcePoint" />
            <mxPoint x="1280" y="-290" as="targetPoint" />
            <Array as="points">
              <mxPoint x="1360" y="-280" />
              <mxPoint x="1360" y="-180" />
            </Array>
          </mxGeometry>
        </mxCell>
        <mxCell id="BITaTjCggA9tgRe2AFIF-24" value="" style="endArrow=classic;html=1;rounded=0;exitX=1;exitY=0.5;exitDx=0;exitDy=0;entryX=0;entryY=0.5;entryDx=0;entryDy=0;" edge="1" parent="1" source="yuVk0EhnXVRBRO2mFo1Z-7" target="BITaTjCggA9tgRe2AFIF-16">
          <mxGeometry width="50" height="50" relative="1" as="geometry">
            <mxPoint x="200" y="-160" as="sourcePoint" />
            <mxPoint x="250" y="-210" as="targetPoint" />
          </mxGeometry>
        </mxCell>
        <mxCell id="BITaTjCggA9tgRe2AFIF-25" value="" style="endArrow=none;dashed=1;html=1;dashPattern=1 3;strokeWidth=2;rounded=0;exitX=1;exitY=0.5;exitDx=0;exitDy=0;entryX=0;entryY=0.25;entryDx=0;entryDy=0;" edge="1" parent="1" source="BITaTjCggA9tgRe2AFIF-8" target="GCO7xrDp6TmdYOZJOnFd-99">
          <mxGeometry width="50" height="50" relative="1" as="geometry">
            <mxPoint x="620" y="70" as="sourcePoint" />
            <mxPoint x="670" y="20" as="targetPoint" />
            <Array as="points">
              <mxPoint x="1040" y="-240" />
              <mxPoint x="1040" y="80" />
              <mxPoint x="520" y="80" />
              <mxPoint x="520" y="140" />
            </Array>
          </mxGeometry>
        </mxCell>
        <mxCell id="BITaTjCggA9tgRe2AFIF-29" value="" style="endArrow=classic;html=1;rounded=0;exitX=0;exitY=0.5;exitDx=0;exitDy=0;entryX=0.5;entryY=0;entryDx=0;entryDy=0;" edge="1" parent="1" source="BITaTjCggA9tgRe2AFIF-4" target="eN8Zq5XajQ-hrPbZrUXH-25">
          <mxGeometry width="50" height="50" relative="1" as="geometry">
            <mxPoint x="670" y="70" as="sourcePoint" />
            <mxPoint x="370" y="80" as="targetPoint" />
            <Array as="points">
              <mxPoint x="360" y="-120" />
            </Array>
          </mxGeometry>
        </mxCell>
        <mxCell id="BITaTjCggA9tgRe2AFIF-30" value="" style="endArrow=classic;html=1;rounded=0;exitX=0;exitY=0.5;exitDx=0;exitDy=0;entryX=0;entryY=0.5;entryDx=0;entryDy=0;" edge="1" parent="1" source="BITaTjCggA9tgRe2AFIF-4" target="BITaTjCggA9tgRe2AFIF-1">
          <mxGeometry width="50" height="50" relative="1" as="geometry">
            <mxPoint x="390" y="-100" as="sourcePoint" />
            <mxPoint x="320" y="-60" as="targetPoint" />
            <Array as="points">
              <mxPoint x="360" y="-120" />
              <mxPoint x="360" />
            </Array>
          </mxGeometry>
        </mxCell>
        <mxCell id="BITaTjCggA9tgRe2AFIF-31" value="&lt;font style=&quot;font-size: 10px;&quot;&gt;$$exp(BEx*x)$$&lt;/font&gt;" style="rounded=0;whiteSpace=wrap;html=1;" vertex="1" parent="1">
          <mxGeometry x="920" y="-200" width="80" height="80" as="geometry" />
        </mxCell>
        <mxCell id="BITaTjCggA9tgRe2AFIF-32" value="&lt;table&gt;&lt;tbody&gt;&lt;tr&gt;&lt;td&gt;$$AEx$$&lt;/td&gt;&lt;/tr&gt;&lt;tr&gt;&lt;td&gt;$$1$$&lt;/td&gt;&lt;/tr&gt;&lt;/tbody&gt;&lt;/table&gt;" style="whiteSpace=wrap;html=1;aspect=fixed;" vertex="1" parent="1">
          <mxGeometry x="761" y="-120" width="80" height="80" as="geometry" />
        </mxCell>
        <mxCell id="BITaTjCggA9tgRe2AFIF-33" value="$$Ke$$" style="rounded=0;whiteSpace=wrap;html=1;" vertex="1" parent="1">
          <mxGeometry x="920" y="-40" width="80" height="80" as="geometry" />
        </mxCell>
        <mxCell id="BITaTjCggA9tgRe2AFIF-34" value="" style="endArrow=classic;html=1;rounded=0;exitX=0;exitY=0.5;exitDx=0;exitDy=0;entryX=1;entryY=0.25;entryDx=0;entryDy=0;" edge="1" parent="1" source="BITaTjCggA9tgRe2AFIF-31" target="BITaTjCggA9tgRe2AFIF-32">
          <mxGeometry width="50" height="50" relative="1" as="geometry">
            <mxPoint x="820" y="-170" as="sourcePoint" />
            <mxPoint x="870" y="-220" as="targetPoint" />
            <Array as="points">
              <mxPoint x="880" y="-160" />
              <mxPoint x="880" y="-100" />
            </Array>
          </mxGeometry>
        </mxCell>
        <mxCell id="BITaTjCggA9tgRe2AFIF-35" value="" style="endArrow=classic;html=1;rounded=0;exitX=0;exitY=0.5;exitDx=0;exitDy=0;entryX=1;entryY=0.75;entryDx=0;entryDy=0;" edge="1" parent="1" source="BITaTjCggA9tgRe2AFIF-33" target="BITaTjCggA9tgRe2AFIF-32">
          <mxGeometry width="50" height="50" relative="1" as="geometry">
            <mxPoint x="820" y="-170" as="sourcePoint" />
            <mxPoint x="870" y="-220" as="targetPoint" />
            <Array as="points">
              <mxPoint x="880" />
              <mxPoint x="880" y="-60" />
            </Array>
          </mxGeometry>
        </mxCell>
        <mxCell id="BITaTjCggA9tgRe2AFIF-37" value="" style="endArrow=classic;html=1;rounded=0;exitX=1;exitY=0.5;exitDx=0;exitDy=0;entryX=1;entryY=0.5;entryDx=0;entryDy=0;" edge="1" parent="1" source="GCO7xrDp6TmdYOZJOnFd-99" target="BITaTjCggA9tgRe2AFIF-31">
          <mxGeometry width="50" height="50" relative="1" as="geometry">
            <mxPoint x="1010" y="-30" as="sourcePoint" />
            <mxPoint x="1060" y="-80" as="targetPoint" />
            <Array as="points">
              <mxPoint x="1080" y="160" />
              <mxPoint x="1080" y="-160" />
            </Array>
          </mxGeometry>
        </mxCell>
        <mxCell id="BITaTjCggA9tgRe2AFIF-38" value="" style="endArrow=classic;html=1;rounded=0;exitX=0;exitY=0.5;exitDx=0;exitDy=0;entryX=1;entryY=0.25;entryDx=0;entryDy=0;" edge="1" parent="1" source="BITaTjCggA9tgRe2AFIF-32" target="BITaTjCggA9tgRe2AFIF-9">
          <mxGeometry width="50" height="50" relative="1" as="geometry">
            <mxPoint x="1010" y="-30" as="sourcePoint" />
            <mxPoint x="1060" y="-80" as="targetPoint" />
            <Array as="points">
              <mxPoint x="720" y="-80" />
              <mxPoint x="720" y="-60" />
            </Array>
          </mxGeometry>
        </mxCell>
        <mxCell id="BITaTjCggA9tgRe2AFIF-39" value="" style="endArrow=classic;html=1;rounded=0;exitX=1;exitY=0.5;exitDx=0;exitDy=0;entryX=0;entryY=0.75;entryDx=0;entryDy=0;" edge="1" parent="1" source="GCO7xrDp6TmdYOZJOnFd-99" target="BITaTjCggA9tgRe2AFIF-17">
          <mxGeometry width="50" height="50" relative="1" as="geometry">
            <mxPoint x="1010" y="-30" as="sourcePoint" />
            <mxPoint x="1060" y="-80" as="targetPoint" />
            <Array as="points">
              <mxPoint x="1080" y="160" />
              <mxPoint x="1080" y="-260" />
            </Array>
          </mxGeometry>
        </mxCell>
        <mxCell id="BITaTjCggA9tgRe2AFIF-40" value="" style="endArrow=classic;html=1;rounded=0;exitX=1;exitY=0.5;exitDx=0;exitDy=0;entryX=0;entryY=0.5;entryDx=0;entryDy=0;" edge="1" parent="1" source="eN8Zq5XajQ-hrPbZrUXH-25" target="GCO7xrDp6TmdYOZJOnFd-99">
          <mxGeometry width="50" height="50" relative="1" as="geometry">
            <mxPoint x="1010" y="-30" as="sourcePoint" />
            <mxPoint x="1060" y="-80" as="targetPoint" />
          </mxGeometry>
        </mxCell>
        <mxCell id="BITaTjCggA9tgRe2AFIF-41" value="" style="endArrow=classic;html=1;rounded=0;exitX=1;exitY=0.5;exitDx=0;exitDy=0;entryX=1;entryY=0.75;entryDx=0;entryDy=0;" edge="1" parent="1" source="GCO7xrDp6TmdYOZJOnFd-99" target="BITaTjCggA9tgRe2AFIF-9">
          <mxGeometry width="50" height="50" relative="1" as="geometry">
            <mxPoint x="710" y="-30" as="sourcePoint" />
            <mxPoint x="760" y="-80" as="targetPoint" />
            <Array as="points">
              <mxPoint x="720" y="160" />
              <mxPoint x="720" y="-20" />
            </Array>
          </mxGeometry>
        </mxCell>
        <mxCell id="BITaTjCggA9tgRe2AFIF-42" value="" style="endArrow=classic;html=1;rounded=0;exitX=1;exitY=0.5;exitDx=0;exitDy=0;entryX=0;entryY=0.75;entryDx=0;entryDy=0;" edge="1" parent="1" source="GCO7xrDp6TmdYOZJOnFd-99" target="BITaTjCggA9tgRe2AFIF-19">
          <mxGeometry width="50" height="50" relative="1" as="geometry">
            <mxPoint x="1170" y="-30" as="sourcePoint" />
            <mxPoint x="1220" y="-80" as="targetPoint" />
            <Array as="points">
              <mxPoint x="1360" y="160" />
              <mxPoint x="1360" y="-140" />
            </Array>
          </mxGeometry>
        </mxCell>
        <mxCell id="BITaTjCggA9tgRe2AFIF-43" value="" style="endArrow=classic;html=1;rounded=0;exitX=1;exitY=0.5;exitDx=0;exitDy=0;entryX=0;entryY=0.5;entryDx=0;entryDy=0;" edge="1" parent="1" source="yuVk0EhnXVRBRO2mFo1Z-7" target="BITaTjCggA9tgRe2AFIF-5">
          <mxGeometry width="50" height="50" relative="1" as="geometry">
            <mxPoint x="620" y="-30" as="sourcePoint" />
            <mxPoint x="670" y="-80" as="targetPoint" />
            <Array as="points">
              <mxPoint x="360" y="-440" />
              <mxPoint x="360" y="-240" />
            </Array>
          </mxGeometry>
        </mxCell>
      </root>
    </mxGraphModel>
  </diagram>
</mxfile>
